REM DIRINDEX 1\2\4\18,1\2\4\19,1\2\5\20,1\2\5\21,1\2\6\22,1\2\7\23,1\2\8\24,1\2\8\25,1\2\9\26,1\2\10\27,1\3\11\28,1\3\11\29,1\3\11\30,1\3\11\31,1\3\12\32,1\3\12\33,1\3\12\34,1\3\12\35,1\3\13\36,1\3\13\37,1\3\14\38,1\3\14\39,1\3\15\40,1\3\15\41,1\3\15\42,1\3\16\43,1\3\16\44,1\3\17\45,1\3\17\46
REM DIRNAME cjc024,folder01,folder02,folder03,folder04,folder05,folder06,folder07,folder08,folder09,folder10,folder11,folder12,folder13,folder14,folder15,folder16,folder17,folder18,folder19,folder20,folder21,folder22,folder23,folder24,folder25,folder26,folder27,folder28,folder29,folder30,folder31,folder32,folder33,folder34,folder35,folder36,folder37,folder38,folder39,folder40,folder41,folder42,folder43,folder44,folder45
TITLE ""
FILE "03.mp3" MP3
  TRACK 01 AUDIO
    TITLE "0:"
    INDEX 01 00:00:00
  TRACK 02 AUDIO
    TITLE "28:cjc024_3596"
    INDEX 01 00:00:13
  TRACK 03 AUDIO
    TITLE "0:"
    INDEX 01 00:01:36
  TRACK 04 AUDIO
    TITLE "29:cjc024_3597"
    INDEX 01 00:02:02
  TRACK 05 AUDIO
    TITLE "0:"
    INDEX 01 00:03:57
  TRACK 06 AUDIO
    TITLE "30:cjc024_3598"
    INDEX 01 00:04:21
  TRACK 07 AUDIO
    TITLE "0:"
    INDEX 01 00:05:71
  TRACK 08 AUDIO
    TITLE "31:cjc024_3599"
    INDEX 01 00:06:20
  TRACK 09 AUDIO
    TITLE "0:"
    INDEX 01 00:07:70
  TRACK 10 AUDIO
    TITLE "28:cjc024_3600"
    INDEX 01 00:08:70
  TRACK 11 AUDIO
    TITLE "0:"
    INDEX 01 00:10:18
  TRACK 12 AUDIO
    TITLE "29:cjc024_3601"
    INDEX 01 00:10:63
  TRACK 13 AUDIO
    TITLE "0:"
    INDEX 01 00:12:28
  TRACK 14 AUDIO
    TITLE "30:cjc024_3602"
    INDEX 01 00:12:65
  TRACK 15 AUDIO
    TITLE "0:"
    INDEX 01 00:14:47
  TRACK 16 AUDIO
    TITLE "31:cjc024_3603"
    INDEX 01 00:15:07
  TRACK 17 AUDIO
    TITLE "0:"
    INDEX 01 00:16:63
  TRACK 18 AUDIO
    TITLE "28:cjc024_3604"
    INDEX 01 00:17:74
  TRACK 19 AUDIO
    TITLE "0:"
    INDEX 01 00:19:30
  TRACK 20 AUDIO
    TITLE "29:cjc024_3605"
    INDEX 01 00:19:67
  TRACK 21 AUDIO
    TITLE "0:"
    INDEX 01 00:23:38
  TRACK 22 AUDIO
    TITLE "30:cjc024_3606"
    INDEX 01 00:24:00
  TRACK 23 AUDIO
    TITLE "0:"
    INDEX 01 00:26:67
  TRACK 24 AUDIO
    TITLE "31:cjc024_3607"
    INDEX 01 00:27:12
  TRACK 25 AUDIO
    TITLE "0:"
    INDEX 01 00:30:05
  TRACK 26 AUDIO
    TITLE "28:cjc024_3608"
    INDEX 01 00:31:02
  TRACK 27 AUDIO
    TITLE "0:"
    INDEX 01 00:32:07
  TRACK 28 AUDIO
    TITLE "29:cjc024_3609"
    INDEX 01 00:32:45
  TRACK 29 AUDIO
    TITLE "0:"
    INDEX 01 00:36:33
  TRACK 30 AUDIO
    TITLE "30:cjc024_3610"
    INDEX 01 00:36:70
  TRACK 31 AUDIO
    TITLE "0:"
    INDEX 01 00:39:64
  TRACK 32 AUDIO
    TITLE "31:cjc024_3611"
    INDEX 01 00:40:19
  TRACK 33 AUDIO
    TITLE "0:"
    INDEX 01 00:43:13
  TRACK 34 AUDIO
    TITLE "28:cjc024_3612"
    INDEX 01 00:44:14
  TRACK 35 AUDIO
    TITLE "0:"
    INDEX 01 00:45:14
  TRACK 36 AUDIO
    TITLE "29:cjc024_3613"
    INDEX 01 00:45:57
  TRACK 37 AUDIO
    TITLE "0:"
    INDEX 01 00:47:44
  TRACK 38 AUDIO
    TITLE "30:cjc024_3614"
    INDEX 01 00:48:12
  TRACK 39 AUDIO
    TITLE "0:"
    INDEX 01 00:49:57
  TRACK 40 AUDIO
    TITLE "31:cjc024_3615"
    INDEX 01 00:50:11
  TRACK 41 AUDIO
    TITLE "0:"
    INDEX 01 00:51:54
  TRACK 42 AUDIO
    TITLE "28:cjc024_3616"
    INDEX 01 00:52:53
  TRACK 43 AUDIO
    TITLE "0:"
    INDEX 01 00:53:74
  TRACK 44 AUDIO
    TITLE "29:cjc024_3617"
    INDEX 01 00:54:36
  TRACK 45 AUDIO
    TITLE "0:"
    INDEX 01 00:57:03
  TRACK 46 AUDIO
    TITLE "30:cjc024_3618"
    INDEX 01 00:57:41
  TRACK 47 AUDIO
    TITLE "0:"
    INDEX 01 00:59:63
  TRACK 48 AUDIO
    TITLE "31:cjc024_3619"
    INDEX 01 01:00:17
  TRACK 49 AUDIO
    TITLE "0:"
    INDEX 01 01:02:40
  TRACK 50 AUDIO
    TITLE "28:cjc024_3620"
    INDEX 01 01:03:45
  TRACK 51 AUDIO
    TITLE "0:"
    INDEX 01 01:04:56
  TRACK 52 AUDIO
    TITLE "29:cjc024_3621"
    INDEX 01 01:05:21
  TRACK 53 AUDIO
    TITLE "0:"
    INDEX 01 01:06:59
  TRACK 54 AUDIO
    TITLE "30:cjc024_3622"
    INDEX 01 01:07:25
  TRACK 55 AUDIO
    TITLE "0:"
    INDEX 01 01:09:12
  TRACK 56 AUDIO
    TITLE "31:cjc024_3623"
    INDEX 01 01:09:40
  TRACK 57 AUDIO
    TITLE "0:"
    INDEX 01 01:11:27
  TRACK 58 AUDIO
    TITLE "28:cjc024_3624"
    INDEX 01 01:12:24
  TRACK 59 AUDIO
    TITLE "0:"
    INDEX 01 01:13:30
  TRACK 60 AUDIO
    TITLE "29:cjc024_3625"
    INDEX 01 01:13:71
  TRACK 61 AUDIO
    TITLE "0:"
    INDEX 01 01:16:52
  TRACK 62 AUDIO
    TITLE "30:cjc024_3626"
    INDEX 01 01:17:16
  TRACK 63 AUDIO
    TITLE "0:"
    INDEX 01 01:19:60
  TRACK 64 AUDIO
    TITLE "31:cjc024_3627"
    INDEX 01 01:20:18
  TRACK 65 AUDIO
    TITLE "0:"
    INDEX 01 01:22:62
  TRACK 66 AUDIO
    TITLE "28:cjc024_3628"
    INDEX 01 01:23:69
  TRACK 67 AUDIO
    TITLE "0:"
    INDEX 01 01:24:73
  TRACK 68 AUDIO
    TITLE "29:cjc024_3629"
    INDEX 01 01:25:41
  TRACK 69 AUDIO
    TITLE "0:"
    INDEX 01 01:28:06
  TRACK 70 AUDIO
    TITLE "30:cjc024_3630"
    INDEX 01 01:28:45
  TRACK 71 AUDIO
    TITLE "0:"
    INDEX 01 01:30:58
  TRACK 72 AUDIO
    TITLE "31:cjc024_3631"
    INDEX 01 01:31:22
  TRACK 73 AUDIO
    TITLE "0:"
    INDEX 01 01:33:36
  TRACK 74 AUDIO
    TITLE "28:cjc024_3632"
    INDEX 01 01:34:50
  TRACK 75 AUDIO
    TITLE "0:"
    INDEX 01 01:35:53
  TRACK 76 AUDIO
    TITLE "29:cjc024_3633"
    INDEX 01 01:36:15
  TRACK 77 AUDIO
    TITLE "0:"
    INDEX 01 01:38:49
  TRACK 78 AUDIO
    TITLE "30:cjc024_3634"
    INDEX 01 01:39:14
  TRACK 79 AUDIO
    TITLE "0:"
    INDEX 01 01:40:52
  TRACK 80 AUDIO
    TITLE "31:cjc024_3635"
    INDEX 01 01:41:03
  TRACK 81 AUDIO
    TITLE "0:"
    INDEX 01 01:42:43
  TRACK 82 AUDIO
    TITLE "28:cjc024_3636"
    INDEX 01 01:43:43
  TRACK 83 AUDIO
    TITLE "0:"
    INDEX 01 01:44:72
  TRACK 84 AUDIO
    TITLE "29:cjc024_3637"
    INDEX 01 01:45:32
  TRACK 85 AUDIO
    TITLE "0:"
    INDEX 01 01:47:05
  TRACK 86 AUDIO
    TITLE "30:cjc024_3638"
    INDEX 01 01:47:42
  TRACK 87 AUDIO
    TITLE "0:"
    INDEX 01 01:49:33
  TRACK 88 AUDIO
    TITLE "31:cjc024_3639"
    INDEX 01 01:49:57
  TRACK 89 AUDIO
    TITLE "0:"
    INDEX 01 01:51:48
  TRACK 90 AUDIO
    TITLE "28:cjc024_3640"
    INDEX 01 01:52:48
  TRACK 91 AUDIO
    TITLE "0:"
    INDEX 01 01:53:67
  TRACK 92 AUDIO
    TITLE "29:cjc024_3641"
    INDEX 01 01:54:27
  TRACK 93 AUDIO
    TITLE "0:"
    INDEX 01 01:57:09
  TRACK 94 AUDIO
    TITLE "30:cjc024_3642"
    INDEX 01 01:57:49
  TRACK 95 AUDIO
    TITLE "0:"
    INDEX 01 01:59:53
  TRACK 96 AUDIO
    TITLE "31:cjc024_3643"
    INDEX 01 02:00:06
  TRACK 97 AUDIO
    TITLE "0:"
    INDEX 01 02:02:11
  TRACK 98 AUDIO
    TITLE "28:cjc024_3644"
    INDEX 01 02:03:12
  TRACK 99 AUDIO
    TITLE "0:"
    INDEX 01 02:04:17
  TRACK 100 AUDIO
    TITLE "29:cjc024_3645"
    INDEX 01 02:04:53
  TRACK 101 AUDIO
    TITLE "0:"
    INDEX 01 02:06:65
  TRACK 102 AUDIO
    TITLE "30:cjc024_3646"
    INDEX 01 02:07:31
  TRACK 103 AUDIO
    TITLE "0:"
    INDEX 01 02:09:24
  TRACK 104 AUDIO
    TITLE "31:cjc024_3647"
    INDEX 01 02:09:50
  TRACK 105 AUDIO
    TITLE "0:"
    INDEX 01 02:11:45
  TRACK 106 AUDIO
    TITLE "28:cjc024_3648"
    INDEX 01 02:12:46
  TRACK 107 AUDIO
    TITLE "0:"
    INDEX 01 02:14:04
  TRACK 108 AUDIO
    TITLE "29:cjc024_3649"
    INDEX 01 02:14:41
  TRACK 109 AUDIO
    TITLE "0:"
    INDEX 01 02:16:07
  TRACK 110 AUDIO
    TITLE "30:cjc024_3650"
    INDEX 01 02:16:46
  TRACK 111 AUDIO
    TITLE "0:"
    INDEX 01 02:18:53
  TRACK 112 AUDIO
    TITLE "31:cjc024_3651"
    INDEX 01 02:19:03
  TRACK 113 AUDIO
    TITLE "0:"
    INDEX 01 02:21:10
  TRACK 114 AUDIO
    TITLE "28:cjc024_3652"
    INDEX 01 02:22:09
  TRACK 115 AUDIO
    TITLE "0:"
    INDEX 01 02:23:09
  TRACK 116 AUDIO
    TITLE "29:cjc024_3653"
    INDEX 01 02:23:46
  TRACK 117 AUDIO
    TITLE "0:"
    INDEX 01 02:26:41
  TRACK 118 AUDIO
    TITLE "30:cjc024_3654"
    INDEX 01 02:27:07
  TRACK 119 AUDIO
    TITLE "0:"
    INDEX 01 02:29:57
  TRACK 120 AUDIO
    TITLE "31:cjc024_3655"
    INDEX 01 02:30:03
  TRACK 121 AUDIO
    TITLE "0:"
    INDEX 01 02:32:51
  TRACK 122 AUDIO
    TITLE "28:cjc024_3656"
    INDEX 01 02:33:50
  TRACK 123 AUDIO
    TITLE "0:"
    INDEX 01 02:34:50
  TRACK 124 AUDIO
    TITLE "29:cjc024_3657"
    INDEX 01 02:35:14
  TRACK 125 AUDIO
    TITLE "0:"
    INDEX 01 02:36:64
  TRACK 126 AUDIO
    TITLE "30:cjc024_3658"
    INDEX 01 02:37:31
  TRACK 127 AUDIO
    TITLE "0:"
    INDEX 01 02:39:08
  TRACK 128 AUDIO
    TITLE "31:cjc024_3659"
    INDEX 01 02:39:33
  TRACK 129 AUDIO
    TITLE "0:"
    INDEX 01 02:41:15
  TRACK 130 AUDIO
    TITLE "28:cjc024_3660"
    INDEX 01 02:42:14
  TRACK 131 AUDIO
    TITLE "0:"
    INDEX 01 02:43:14
  TRACK 132 AUDIO
    TITLE "29:cjc024_3661"
    INDEX 01 02:43:47
  TRACK 133 AUDIO
    TITLE "0:"
    INDEX 01 02:46:12
  TRACK 134 AUDIO
    TITLE "30:cjc024_3662"
    INDEX 01 02:46:51
  TRACK 135 AUDIO
    TITLE "0:"
    INDEX 01 02:48:64
  TRACK 136 AUDIO
    TITLE "31:cjc024_3663"
    INDEX 01 02:49:16
  TRACK 137 AUDIO
    TITLE "0:"
    INDEX 01 02:51:29
  TRACK 138 AUDIO
    TITLE "28:cjc024_3664"
    INDEX 01 02:52:30
  TRACK 139 AUDIO
    TITLE "0:"
    INDEX 01 02:53:32
  TRACK 140 AUDIO
    TITLE "29:cjc024_3665"
    INDEX 01 02:53:69
  TRACK 141 AUDIO
    TITLE "0:"
    INDEX 01 02:56:34
  TRACK 142 AUDIO
    TITLE "30:cjc024_3666"
    INDEX 01 02:56:71
  TRACK 143 AUDIO
    TITLE "0:"
    INDEX 01 02:58:41
  TRACK 144 AUDIO
    TITLE "31:cjc024_3667"
    INDEX 01 02:58:62
  TRACK 145 AUDIO
    TITLE "0:"
    INDEX 01 03:00:32
  TRACK 146 AUDIO
    TITLE "28:cjc024_3668"
    INDEX 01 03:01:31
  TRACK 147 AUDIO
    TITLE "0:"
    INDEX 01 03:02:32
  TRACK 148 AUDIO
    TITLE "29:cjc024_3669"
    INDEX 01 03:02:70
  TRACK 149 AUDIO
    TITLE "0:"
    INDEX 01 03:04:65
  TRACK 150 AUDIO
    TITLE "30:cjc024_3670"
    INDEX 01 03:05:29
  TRACK 151 AUDIO
    TITLE "0:"
    INDEX 01 03:06:66
  TRACK 152 AUDIO
    TITLE "31:cjc024_3671"
    INDEX 01 03:07:18
  TRACK 153 AUDIO
    TITLE "0:"
    INDEX 01 03:08:51
  TRACK 154 AUDIO
    TITLE "28:cjc024_3672"
    INDEX 01 03:09:50
  TRACK 155 AUDIO
    TITLE "0:"
    INDEX 01 03:10:50
  TRACK 156 AUDIO
    TITLE "29:cjc024_3673"
    INDEX 01 03:11:12
  TRACK 157 AUDIO
    TITLE "0:"
    INDEX 01 03:12:37
  TRACK 158 AUDIO
    TITLE "30:cjc024_3674"
    INDEX 01 03:13:01
  TRACK 159 AUDIO
    TITLE "0:"
    INDEX 01 03:14:26
  TRACK 160 AUDIO
    TITLE "31:cjc024_3675"
    INDEX 01 03:14:53
  TRACK 161 AUDIO
    TITLE "0:"
    INDEX 01 03:16:05
  TRACK 162 AUDIO
    TITLE "28:cjc024_3676"
    INDEX 01 03:17:07
  TRACK 163 AUDIO
    TITLE "0:"
    INDEX 01 03:18:16
  TRACK 164 AUDIO
    TITLE "29:cjc024_3677"
    INDEX 01 03:18:53
  TRACK 165 AUDIO
    TITLE "0:"
    INDEX 01 03:20:28
  TRACK 166 AUDIO
    TITLE "30:cjc024_3678"
    INDEX 01 03:20:64
  TRACK 167 AUDIO
    TITLE "0:"
    INDEX 01 03:22:39
  TRACK 168 AUDIO
    TITLE "31:cjc024_3679"
    INDEX 01 03:22:63
  TRACK 169 AUDIO
    TITLE "0:"
    INDEX 01 03:24:36
  TRACK 170 AUDIO
    TITLE "28:cjc024_3680"
    INDEX 01 03:25:33
  TRACK 171 AUDIO
    TITLE "0:"
    INDEX 01 03:26:29
  TRACK 172 AUDIO
    TITLE "29:cjc024_3681"
    INDEX 01 03:26:68
  TRACK 173 AUDIO
    TITLE "0:"
    INDEX 01 03:28:38
  TRACK 174 AUDIO
    TITLE "30:cjc024_3682"
    INDEX 01 03:28:73
  TRACK 175 AUDIO
    TITLE "0:"
    INDEX 01 03:30:42
  TRACK 176 AUDIO
    TITLE "31:cjc024_3683"
    INDEX 01 03:30:72
  TRACK 177 AUDIO
    TITLE "0:"
    INDEX 01 03:32:43
  TRACK 178 AUDIO
    TITLE "28:cjc024_3684"
    INDEX 01 03:33:53
  TRACK 179 AUDIO
    TITLE "0:"
    INDEX 01 03:34:58
  TRACK 180 AUDIO
    TITLE "29:cjc024_3685"
    INDEX 01 03:35:32
  TRACK 181 AUDIO
    TITLE "0:"
    INDEX 01 03:38:07
  TRACK 182 AUDIO
    TITLE "30:cjc024_3686"
    INDEX 01 03:38:42
  TRACK 183 AUDIO
    TITLE "0:"
    INDEX 01 03:40:41
  TRACK 184 AUDIO
    TITLE "31:cjc024_3687"
    INDEX 01 03:40:66
  TRACK 185 AUDIO
    TITLE "0:"
    INDEX 01 03:42:61
  TRACK 186 AUDIO
    TITLE "28:cjc024_3688"
    INDEX 01 03:43:65
  TRACK 187 AUDIO
    TITLE "0:"
    INDEX 01 03:45:03
  TRACK 188 AUDIO
    TITLE "29:cjc024_3689"
    INDEX 01 03:45:40
  TRACK 189 AUDIO
    TITLE "0:"
    INDEX 01 03:47:55
  TRACK 190 AUDIO
    TITLE "30:cjc024_3690"
    INDEX 01 03:48:25
  TRACK 191 AUDIO
    TITLE "0:"
    INDEX 01 03:50:35
  TRACK 192 AUDIO
    TITLE "31:cjc024_3691"
    INDEX 01 03:50:67
  TRACK 193 AUDIO
    TITLE "0:"
    INDEX 01 03:53:02
  TRACK 194 AUDIO
    TITLE "28:cjc024_3692"
    INDEX 01 03:54:04
  TRACK 195 AUDIO
    TITLE "0:"
    INDEX 01 03:55:21
  TRACK 196 AUDIO
    TITLE "29:cjc024_3693"
    INDEX 01 03:55:62
  TRACK 197 AUDIO
    TITLE "0:"
    INDEX 01 03:58:35
  TRACK 198 AUDIO
    TITLE "30:cjc024_3694"
    INDEX 01 03:58:74
  TRACK 199 AUDIO
    TITLE "0:"
    INDEX 01 04:01:25
  TRACK 200 AUDIO
    TITLE "31:cjc024_3695"
    INDEX 01 04:01:51
  TRACK 201 AUDIO
    TITLE "0:"
    INDEX 01 04:04:02
  TRACK 202 AUDIO
    TITLE "28:cjc024_3696"
    INDEX 01 04:05:06
  TRACK 203 AUDIO
    TITLE "0:"
    INDEX 01 04:06:30
  TRACK 204 AUDIO
    TITLE "29:cjc024_3697"
    INDEX 01 04:06:74
  TRACK 205 AUDIO
    TITLE "0:"
    INDEX 01 04:10:01
  TRACK 206 AUDIO
    TITLE "30:cjc024_3698"
    INDEX 01 04:10:38
  TRACK 207 AUDIO
    TITLE "0:"
    INDEX 01 04:13:31
  TRACK 208 AUDIO
    TITLE "31:cjc024_3699"
    INDEX 01 04:13:60
  TRACK 209 AUDIO
    TITLE "0:"
    INDEX 01 04:16:50
  TRACK 210 AUDIO
    TITLE "28:cjc024_3700"
    INDEX 01 04:17:58
  TRACK 211 AUDIO
    TITLE "0:"
    INDEX 01 04:18:73
  TRACK 212 AUDIO
    TITLE "29:cjc024_3701"
    INDEX 01 04:19:35
  TRACK 213 AUDIO
    TITLE "0:"
    INDEX 01 04:21:22
  TRACK 214 AUDIO
    TITLE "30:cjc024_3702"
    INDEX 01 04:21:59
  TRACK 215 AUDIO
    TITLE "0:"
    INDEX 01 04:23:72
  TRACK 216 AUDIO
    TITLE "31:cjc024_3703"
    INDEX 01 04:24:23
  TRACK 217 AUDIO
    TITLE "0:"
    INDEX 01 04:26:31
  TRACK 218 AUDIO
    TITLE "28:cjc024_3704"
    INDEX 01 04:27:33
  TRACK 219 AUDIO
    TITLE "0:"
    INDEX 01 04:28:26
  TRACK 220 AUDIO
    TITLE "29:cjc024_3705"
    INDEX 01 04:28:67
  TRACK 221 AUDIO
    TITLE "0:"
    INDEX 01 04:31:15
  TRACK 222 AUDIO
    TITLE "30:cjc024_3706"
    INDEX 01 04:31:52
  TRACK 223 AUDIO
    TITLE "0:"
    INDEX 01 04:33:47
  TRACK 224 AUDIO
    TITLE "31:cjc024_3707"
    INDEX 01 04:33:72
  TRACK 225 AUDIO
    TITLE "0:"
    INDEX 01 04:35:67
  TRACK 226 AUDIO
    TITLE "28:cjc024_3708"
    INDEX 01 04:36:69
  TRACK 227 AUDIO
    TITLE "0:"
    INDEX 01 04:37:74
  TRACK 228 AUDIO
    TITLE "29:cjc024_3709"
    INDEX 01 04:38:38
  TRACK 229 AUDIO
    TITLE "0:"
    INDEX 01 04:40:02
  TRACK 230 AUDIO
    TITLE "30:cjc024_3710"
    INDEX 01 04:40:39
  TRACK 231 AUDIO
    TITLE "0:"
    INDEX 01 04:42:15
  TRACK 232 AUDIO
    TITLE "31:cjc024_3711"
    INDEX 01 04:42:40
  TRACK 233 AUDIO
    TITLE "0:"
    INDEX 01 04:44:13
  TRACK 234 AUDIO
    TITLE "28:cjc024_3712"
    INDEX 01 04:45:13
  TRACK 235 AUDIO
    TITLE "0:"
    INDEX 01 04:46:22
  TRACK 236 AUDIO
    TITLE "29:cjc024_3713"
    INDEX 01 04:46:61
  TRACK 237 AUDIO
    TITLE "0:"
    INDEX 01 04:48:50
  TRACK 238 AUDIO
    TITLE "30:cjc024_3714"
    INDEX 01 04:49:15
  TRACK 239 AUDIO
    TITLE "0:"
    INDEX 01 04:51:27
  TRACK 240 AUDIO
    TITLE "31:cjc024_3715"
    INDEX 01 04:51:53
  TRACK 241 AUDIO
    TITLE "0:"
    INDEX 01 04:53:67
  TRACK 242 AUDIO
    TITLE "28:cjc024_3716"
    INDEX 01 04:54:71
  TRACK 243 AUDIO
    TITLE "0:"
    INDEX 01 04:56:01
  TRACK 244 AUDIO
    TITLE "29:cjc024_3717"
    INDEX 01 04:56:42
  TRACK 245 AUDIO
    TITLE "0:"
    INDEX 01 04:58:04
  TRACK 246 AUDIO
    TITLE "30:cjc024_3718"
    INDEX 01 04:58:43
  TRACK 247 AUDIO
    TITLE "0:"
    INDEX 01 05:00:24
  TRACK 248 AUDIO
    TITLE "31:cjc024_3719"
    INDEX 01 05:00:50
  TRACK 249 AUDIO
    TITLE "0:"
    INDEX 01 05:02:31
  TRACK 250 AUDIO
    TITLE "28:cjc024_3720"
    INDEX 01 05:03:34
  TRACK 251 AUDIO
    TITLE "0:"
    INDEX 01 05:04:36
  TRACK 252 AUDIO
    TITLE "29:cjc024_3721"
    INDEX 01 05:04:73
  TRACK 253 AUDIO
    TITLE "0:"
    INDEX 01 05:06:44
  TRACK 254 AUDIO
    TITLE "30:cjc024_3722"
    INDEX 01 05:07:16
  TRACK 255 AUDIO
    TITLE "0:"
    INDEX 01 05:09:08
  TRACK 256 AUDIO
    TITLE "31:cjc024_3723"
    INDEX 01 05:09:41
  TRACK 257 AUDIO
    TITLE "0:"
    INDEX 01 05:11:32
  TRACK 258 AUDIO
    TITLE "28:cjc024_3724"
    INDEX 01 05:12:33
  TRACK 259 AUDIO
    TITLE "0:"
    INDEX 01 05:13:41
  TRACK 260 AUDIO
    TITLE "29:cjc024_3725"
    INDEX 01 05:14:01
  TRACK 261 AUDIO
    TITLE "0:"
    INDEX 01 05:16:68
  TRACK 262 AUDIO
    TITLE "30:cjc024_3726"
    INDEX 01 05:17:33
  TRACK 263 AUDIO
    TITLE "0:"
    INDEX 01 05:19:29
  TRACK 264 AUDIO
    TITLE "31:cjc024_3727"
    INDEX 01 05:19:55
  TRACK 265 AUDIO
    TITLE "0:"
    INDEX 01 05:21:54
  TRACK 266 AUDIO
    TITLE "28:cjc024_3728"
    INDEX 01 05:22:57
  TRACK 267 AUDIO
    TITLE "0:"
    INDEX 01 05:23:45
  TRACK 268 AUDIO
    TITLE "29:cjc024_3729"
    INDEX 01 05:24:11
  TRACK 269 AUDIO
    TITLE "0:"
    INDEX 01 05:25:59
  TRACK 270 AUDIO
    TITLE "30:cjc024_3730"
    INDEX 01 05:26:26
  TRACK 271 AUDIO
    TITLE "0:"
    INDEX 01 05:27:64
  TRACK 272 AUDIO
    TITLE "31:cjc024_3731"
    INDEX 01 05:28:17
  TRACK 273 AUDIO
    TITLE "0:"
    INDEX 01 05:29:57
  TRACK 274 AUDIO
    TITLE "28:cjc024_3732"
    INDEX 01 05:30:61
  TRACK 275 AUDIO
    TITLE "0:"
    INDEX 01 05:32:09
  TRACK 276 AUDIO
    TITLE "29:cjc024_3733"
    INDEX 01 05:32:46
  TRACK 277 AUDIO
    TITLE "0:"
    INDEX 01 05:34:39
  TRACK 278 AUDIO
    TITLE "30:cjc024_3734"
    INDEX 01 05:35:03
  TRACK 279 AUDIO
    TITLE "0:"
    INDEX 01 05:36:69
  TRACK 280 AUDIO
    TITLE "31:cjc024_3735"
    INDEX 01 05:37:21
  TRACK 281 AUDIO
    TITLE "0:"
    INDEX 01 05:39:15
  TRACK 282 AUDIO
    TITLE "28:cjc024_3736"
    INDEX 01 05:40:14
  TRACK 283 AUDIO
    TITLE "0:"
    INDEX 01 05:41:19
  TRACK 284 AUDIO
    TITLE "29:cjc024_3737"
    INDEX 01 05:41:57
  TRACK 285 AUDIO
    TITLE "0:"
    INDEX 01 05:44:35
  TRACK 286 AUDIO
    TITLE "30:cjc024_3738"
    INDEX 01 05:44:72
  TRACK 287 AUDIO
    TITLE "0:"
    INDEX 01 05:47:16
  TRACK 288 AUDIO
    TITLE "31:cjc024_3739"
    INDEX 01 05:47:43
  TRACK 289 AUDIO
    TITLE "0:"
    INDEX 01 05:49:62
  TRACK 290 AUDIO
    TITLE "28:cjc024_3740"
    INDEX 01 05:50:63
  TRACK 291 AUDIO
    TITLE "0:"
    INDEX 01 05:52:00
  TRACK 292 AUDIO
    TITLE "29:cjc024_3741"
    INDEX 01 05:52:35
  TRACK 293 AUDIO
    TITLE "0:"
    INDEX 01 05:55:63
  TRACK 294 AUDIO
    TITLE "30:cjc024_3742"
    INDEX 01 05:56:21
  TRACK 295 AUDIO
    TITLE "0:"
    INDEX 01 05:59:11
  TRACK 296 AUDIO
    TITLE "31:cjc024_3743"
    INDEX 01 05:59:35
  TRACK 297 AUDIO
    TITLE "0:"
    INDEX 01 06:02:27
  TRACK 298 AUDIO
    TITLE "28:cjc024_3744"
    INDEX 01 06:03:25
  TRACK 299 AUDIO
    TITLE "0:"
    INDEX 01 06:04:30
  TRACK 300 AUDIO
    TITLE "29:cjc024_3745"
    INDEX 01 06:04:67
  TRACK 301 AUDIO
    TITLE "0:"
    INDEX 01 06:06:70
  TRACK 302 AUDIO
    TITLE "30:cjc024_3746"
    INDEX 01 06:07:32
  TRACK 303 AUDIO
    TITLE "0:"
    INDEX 01 06:09:47
  TRACK 304 AUDIO
    TITLE "31:cjc024_3747"
    INDEX 01 06:09:72
  TRACK 305 AUDIO
    TITLE "0:"
    INDEX 01 06:12:12
  TRACK 306 AUDIO
    TITLE "28:cjc024_3748"
    INDEX 01 06:13:13
  TRACK 307 AUDIO
    TITLE "0:"
    INDEX 01 06:14:32
  TRACK 308 AUDIO
    TITLE "29:cjc024_3749"
    INDEX 01 06:14:72
  TRACK 309 AUDIO
    TITLE "0:"
    INDEX 01 06:16:45
  TRACK 310 AUDIO
    TITLE "30:cjc024_3750"
    INDEX 01 06:17:09
  TRACK 311 AUDIO
    TITLE "0:"
    INDEX 01 06:18:67
  TRACK 312 AUDIO
    TITLE "31:cjc024_3751"
    INDEX 01 06:19:18
  TRACK 313 AUDIO
    TITLE "0:"
    INDEX 01 06:21:03
  TRACK 314 AUDIO
    TITLE "28:cjc024_3752"
    INDEX 01 06:22:05
  TRACK 315 AUDIO
    TITLE "0:"
    INDEX 01 06:23:31
  TRACK 316 AUDIO
    TITLE "29:cjc024_3753"
    INDEX 01 06:23:71
  TRACK 317 AUDIO
    TITLE "0:"
    INDEX 01 06:25:52
  TRACK 318 AUDIO
    TITLE "30:cjc024_3754"
    INDEX 01 06:26:12
  TRACK 319 AUDIO
    TITLE "0:"
    INDEX 01 06:28:13
  TRACK 320 AUDIO
    TITLE "31:cjc024_3755"
    INDEX 01 06:28:38
  TRACK 321 AUDIO
    TITLE "0:"
    INDEX 01 06:30:37
  TRACK 322 AUDIO
    TITLE "28:cjc024_3756"
    INDEX 01 06:31:41
  TRACK 323 AUDIO
    TITLE "0:"
    INDEX 01 06:32:64
  TRACK 324 AUDIO
    TITLE "29:cjc024_3757"
    INDEX 01 06:33:28
  TRACK 325 AUDIO
    TITLE "0:"
    INDEX 01 06:35:35
  TRACK 326 AUDIO
    TITLE "30:cjc024_3758"
    INDEX 01 06:35:72
  TRACK 327 AUDIO
    TITLE "0:"
    INDEX 01 06:37:61
  TRACK 328 AUDIO
    TITLE "31:cjc024_3759"
    INDEX 01 06:38:19
  TRACK 329 AUDIO
    TITLE "0:"
    INDEX 01 06:40:10
  TRACK 330 AUDIO
    TITLE "28:cjc024_3760"
    INDEX 01 06:41:21
  TRACK 331 AUDIO
    TITLE "0:"
    INDEX 01 06:42:33
  TRACK 332 AUDIO
    TITLE "29:cjc024_3761"
    INDEX 01 06:42:68
  TRACK 333 AUDIO
    TITLE "0:"
    INDEX 01 06:46:62
  TRACK 334 AUDIO
    TITLE "30:cjc024_3762"
    INDEX 01 06:47:26
  TRACK 335 AUDIO
    TITLE "0:"
    INDEX 01 06:50:18
  TRACK 336 AUDIO
    TITLE "31:cjc024_3763"
    INDEX 01 06:50:44
  TRACK 337 AUDIO
    TITLE "0:"
    INDEX 01 06:53:36
  TRACK 338 AUDIO
    TITLE "28:cjc024_3764"
    INDEX 01 06:54:36
  TRACK 339 AUDIO
    TITLE "0:"
    INDEX 01 06:55:49
  TRACK 340 AUDIO
    TITLE "29:cjc024_3765"
    INDEX 01 06:56:11
  TRACK 341 AUDIO
    TITLE "0:"
    INDEX 01 06:58:36
  TRACK 342 AUDIO
    TITLE "30:cjc024_3766"
    INDEX 01 06:58:71
  TRACK 343 AUDIO
    TITLE "0:"
    INDEX 01 07:01:03
  TRACK 344 AUDIO
    TITLE "31:cjc024_3767"
    INDEX 01 07:01:24
  TRACK 345 AUDIO
    TITLE "0:"
    INDEX 01 07:03:31
  TRACK 346 AUDIO
    TITLE "28:cjc024_3768"
    INDEX 01 07:04:30
  TRACK 347 AUDIO
    TITLE "0:"
    INDEX 01 07:05:44
  TRACK 348 AUDIO
    TITLE "29:cjc024_3769"
    INDEX 01 07:06:16
  TRACK 349 AUDIO
    TITLE "0:"
    INDEX 01 07:08:30
  TRACK 350 AUDIO
    TITLE "30:cjc024_3770"
    INDEX 01 07:08:67
  TRACK 351 AUDIO
    TITLE "0:"
    INDEX 01 07:11:50
  TRACK 352 AUDIO
    TITLE "31:cjc024_3771"
    INDEX 01 07:11:74
  TRACK 353 AUDIO
    TITLE "0:"
    INDEX 01 07:14:54
  TRACK 354 AUDIO
    TITLE "28:cjc024_3772"
    INDEX 01 07:15:56
  TRACK 355 AUDIO
    TITLE "0:"
    INDEX 01 07:16:59
  TRACK 356 AUDIO
    TITLE "29:cjc024_3773"
    INDEX 01 07:17:25
  TRACK 357 AUDIO
    TITLE "0:"
    INDEX 01 07:20:49
  TRACK 358 AUDIO
    TITLE "30:cjc024_3774"
    INDEX 01 07:21:13
  TRACK 359 AUDIO
    TITLE "0:"
    INDEX 01 07:23:41
  TRACK 360 AUDIO
    TITLE "31:cjc024_3775"
    INDEX 01 07:23:69
  TRACK 361 AUDIO
    TITLE "0:"
    INDEX 01 07:26:22
  TRACK 362 AUDIO
    TITLE "28:cjc024_3776"
    INDEX 01 07:27:26
  TRACK 363 AUDIO
    TITLE "0:"
    INDEX 01 07:28:41
  TRACK 364 AUDIO
    TITLE "29:cjc024_3777"
    INDEX 01 07:29:11
  TRACK 365 AUDIO
    TITLE "0:"
    INDEX 01 07:32:21
  TRACK 366 AUDIO
    TITLE "30:cjc024_3778"
    INDEX 01 07:32:60
  TRACK 367 AUDIO
    TITLE "0:"
    INDEX 01 07:35:05
  TRACK 368 AUDIO
    TITLE "31:cjc024_3779"
    INDEX 01 07:35:31
  TRACK 369 AUDIO
    TITLE "0:"
    INDEX 01 07:37:49
  TRACK 370 AUDIO
    TITLE "28:cjc024_3780"
    INDEX 01 07:38:51
  TRACK 371 AUDIO
    TITLE "0:"
    INDEX 01 07:39:68
  TRACK 372 AUDIO
    TITLE "29:cjc024_3781"
    INDEX 01 07:40:30
  TRACK 373 AUDIO
    TITLE "0:"
    INDEX 01 07:42:53
  TRACK 374 AUDIO
    TITLE "30:cjc024_3782"
    INDEX 01 07:43:15
  TRACK 375 AUDIO
    TITLE "0:"
    INDEX 01 07:45:61
  TRACK 376 AUDIO
    TITLE "31:cjc024_3783"
    INDEX 01 07:46:09
  TRACK 377 AUDIO
    TITLE "0:"
    INDEX 01 07:48:57
  TRACK 378 AUDIO
    TITLE "28:cjc024_3784"
    INDEX 01 07:49:58
  TRACK 379 AUDIO
    TITLE "0:"
    INDEX 01 07:51:06
  TRACK 380 AUDIO
    TITLE "29:cjc024_3785"
    INDEX 01 07:51:46
  TRACK 381 AUDIO
    TITLE "0:"
    INDEX 01 07:53:25
  TRACK 382 AUDIO
    TITLE "30:cjc024_3786"
    INDEX 01 07:53:60
  TRACK 383 AUDIO
    TITLE "0:"
    INDEX 01 07:56:23
  TRACK 384 AUDIO
    TITLE "31:cjc024_3787"
    INDEX 01 07:56:51
  TRACK 385 AUDIO
    TITLE "0:"
    INDEX 01 07:59:14
  TRACK 386 AUDIO
    TITLE "28:cjc024_3788"
    INDEX 01 08:00:13
  TRACK 387 AUDIO
    TITLE "0:"
    INDEX 01 08:01:21
  TRACK 388 AUDIO
    TITLE "29:cjc024_3789"
    INDEX 01 08:01:68
  TRACK 389 AUDIO
    TITLE "0:"
    INDEX 01 08:04:33
  TRACK 390 AUDIO
    TITLE "30:cjc024_3790"
    INDEX 01 08:04:68
  TRACK 391 AUDIO
    TITLE "0:"
    INDEX 01 08:07:47
  TRACK 392 AUDIO
    TITLE "31:cjc024_3791"
    INDEX 01 08:07:70
  TRACK 393 AUDIO
    TITLE "0:"
    INDEX 01 08:10:47
  TRACK 394 AUDIO
    TITLE "28:cjc024_3792"
    INDEX 01 08:11:50
  TRACK 395 AUDIO
    TITLE "0:"
    INDEX 01 08:12:61
  TRACK 396 AUDIO
    TITLE "29:cjc024_3793"
    INDEX 01 08:13:24
  TRACK 397 AUDIO
    TITLE "0:"
    INDEX 01 08:14:64
  TRACK 398 AUDIO
    TITLE "30:cjc024_3794"
    INDEX 01 08:15:27
  TRACK 399 AUDIO
    TITLE "0:"
    INDEX 01 08:17:18
  TRACK 400 AUDIO
    TITLE "31:cjc024_3795"
    INDEX 01 08:17:41
  TRACK 401 AUDIO
    TITLE "0:"
    INDEX 01 08:19:30
  TRACK 402 AUDIO
    TITLE "28:cjc024_3796"
    INDEX 01 08:20:34
  TRACK 403 AUDIO
    TITLE "0:"
    INDEX 01 08:21:39
  TRACK 404 AUDIO
    TITLE "29:cjc024_3797"
    INDEX 01 08:22:01
  TRACK 405 AUDIO
    TITLE "0:"
    INDEX 01 08:25:05
  TRACK 406 AUDIO
    TITLE "30:cjc024_3798"
    INDEX 01 08:25:45
  TRACK 407 AUDIO
    TITLE "0:"
    INDEX 01 08:27:53
  TRACK 408 AUDIO
    TITLE "31:cjc024_3799"
    INDEX 01 08:28:06
  TRACK 409 AUDIO
    TITLE "0:"
    INDEX 01 08:30:12
  TRACK 410 AUDIO
    TITLE "28:cjc024_3800"
    INDEX 01 08:31:14
  TRACK 411 AUDIO
    TITLE "0:"
    INDEX 01 08:32:23
  TRACK 412 AUDIO
    TITLE "29:cjc024_3801"
    INDEX 01 08:32:62
  TRACK 413 AUDIO
    TITLE "0:"
    INDEX 01 08:34:55
  TRACK 414 AUDIO
    TITLE "30:cjc024_3802"
    INDEX 01 08:35:19
  TRACK 415 AUDIO
    TITLE "0:"
    INDEX 01 08:37:12
  TRACK 416 AUDIO
    TITLE "31:cjc024_3803"
    INDEX 01 08:37:38
  TRACK 417 AUDIO
    TITLE "0:"
    INDEX 01 08:39:33
  TRACK 418 AUDIO
    TITLE "28:cjc024_3804"
    INDEX 01 08:40:32
  TRACK 419 AUDIO
    TITLE "0:"
    INDEX 01 08:41:53
  TRACK 420 AUDIO
    TITLE "29:cjc024_3805"
    INDEX 01 08:42:14
  TRACK 421 AUDIO
    TITLE "0:"
    INDEX 01 08:44:34
  TRACK 422 AUDIO
    TITLE "30:cjc024_3806"
    INDEX 01 08:44:73
  TRACK 423 AUDIO
    TITLE "0:"
    INDEX 01 08:46:53
  TRACK 424 AUDIO
    TITLE "31:cjc024_3807"
    INDEX 01 08:47:03
  TRACK 425 AUDIO
    TITLE "0:"
    INDEX 01 08:48:57
  TRACK 426 AUDIO
    TITLE "28:cjc024_3808"
    INDEX 01 08:49:61
  TRACK 427 AUDIO
    TITLE "0:"
    INDEX 01 08:51:15
  TRACK 428 AUDIO
    TITLE "29:cjc024_3809"
    INDEX 01 08:51:54
  TRACK 429 AUDIO
    TITLE "0:"
    INDEX 01 08:53:15
  TRACK 430 AUDIO
    TITLE "30:cjc024_3810"
    INDEX 01 08:53:57
  TRACK 431 AUDIO
    TITLE "0:"
    INDEX 01 08:55:42
  TRACK 432 AUDIO
    TITLE "31:cjc024_3811"
    INDEX 01 08:55:67
  TRACK 433 AUDIO
    TITLE "0:"
    INDEX 01 08:57:52
  TRACK 434 AUDIO
    TITLE "28:cjc024_3812"
    INDEX 01 08:58:58
  TRACK 435 AUDIO
    TITLE "0:"
    INDEX 01 09:00:00
  TRACK 436 AUDIO
    TITLE "29:cjc024_3813"
    INDEX 01 09:00:35
  TRACK 437 AUDIO
    TITLE "0:"
    INDEX 01 09:02:34
  TRACK 438 AUDIO
    TITLE "30:cjc024_3814"
    INDEX 01 09:02:71
  TRACK 439 AUDIO
    TITLE "0:"
    INDEX 01 09:04:45
  TRACK 440 AUDIO
    TITLE "31:cjc024_3815"
    INDEX 01 09:04:68
  TRACK 441 AUDIO
    TITLE "0:"
    INDEX 01 09:06:40
  TRACK 442 AUDIO
    TITLE "28:cjc024_3816"
    INDEX 01 09:07:41
  TRACK 443 AUDIO
    TITLE "0:"
    INDEX 01 09:08:60
  TRACK 444 AUDIO
    TITLE "29:cjc024_3817"
    INDEX 01 09:09:22
  TRACK 445 AUDIO
    TITLE "0:"
    INDEX 01 09:11:09
  TRACK 446 AUDIO
    TITLE "30:cjc024_3818"
    INDEX 01 09:11:47
  TRACK 447 AUDIO
    TITLE "0:"
    INDEX 01 09:14:16
  TRACK 448 AUDIO
    TITLE "31:cjc024_3819"
    INDEX 01 09:14:37
  TRACK 449 AUDIO
    TITLE "0:"
    INDEX 01 09:17:06
  TRACK 450 AUDIO
    TITLE "28:cjc024_3820"
    INDEX 01 09:18:06
  TRACK 451 AUDIO
    TITLE "0:"
    INDEX 01 09:19:23
  TRACK 452 AUDIO
    TITLE "29:cjc024_3821"
    INDEX 01 09:19:60
  TRACK 453 AUDIO
    TITLE "0:"
    INDEX 01 09:21:41
  TRACK 454 AUDIO
    TITLE "30:cjc024_3822"
    INDEX 01 09:22:03
  TRACK 455 AUDIO
    TITLE "0:"
    INDEX 01 09:23:62
  TRACK 456 AUDIO
    TITLE "31:cjc024_3823"
    INDEX 01 09:24:10
  TRACK 457 AUDIO
    TITLE "0:"
    INDEX 01 09:25:68
  TRACK 458 AUDIO
    TITLE "28:cjc024_3824"
    INDEX 01 09:26:70
  TRACK 459 AUDIO
    TITLE "0:"
    INDEX 01 09:28:04
  TRACK 460 AUDIO
    TITLE "29:cjc024_3825"
    INDEX 01 09:28:49
  TRACK 461 AUDIO
    TITLE "0:"
    INDEX 01 09:30:17
  TRACK 462 AUDIO
    TITLE "30:cjc024_3826"
    INDEX 01 09:30:56
  TRACK 463 AUDIO
    TITLE "0:"
    INDEX 01 09:32:25
  TRACK 464 AUDIO
    TITLE "31:cjc024_3827"
    INDEX 01 09:32:53
  TRACK 465 AUDIO
    TITLE "0:"
    INDEX 01 09:34:22
  TRACK 466 AUDIO
    TITLE "28:cjc024_3828"
    INDEX 01 09:35:26
  TRACK 467 AUDIO
    TITLE "0:"
    INDEX 01 09:36:47
  TRACK 468 AUDIO
    TITLE "29:cjc024_3829"
    INDEX 01 09:37:07
  TRACK 469 AUDIO
    TITLE "0:"
    INDEX 01 09:38:65
  TRACK 470 AUDIO
    TITLE "30:cjc024_3830"
    INDEX 01 09:39:27
  TRACK 471 AUDIO
    TITLE "0:"
    INDEX 01 09:42:00
  TRACK 472 AUDIO
    TITLE "31:cjc024_3831"
    INDEX 01 09:42:28
  TRACK 473 AUDIO
    TITLE "0:"
    INDEX 01 09:44:73
  TRACK 474 AUDIO
    TITLE "28:cjc024_3832"
    INDEX 01 09:45:73
  TRACK 475 AUDIO
    TITLE "0:"
    INDEX 01 09:47:03
  TRACK 476 AUDIO
    TITLE "29:cjc024_3833"
    INDEX 01 09:47:40
  TRACK 477 AUDIO
    TITLE "0:"
    INDEX 01 09:49:32
  TRACK 478 AUDIO
    TITLE "30:cjc024_3834"
    INDEX 01 09:49:71
  TRACK 479 AUDIO
    TITLE "0:"
    INDEX 01 09:51:32
  TRACK 480 AUDIO
    TITLE "31:cjc024_3835"
    INDEX 01 09:51:60
  TRACK 481 AUDIO
    TITLE "0:"
    INDEX 01 09:53:23
  TRACK 482 AUDIO
    TITLE "28:cjc024_3836"
    INDEX 01 09:54:23
  TRACK 483 AUDIO
    TITLE "0:"
    INDEX 01 09:55:48
  TRACK 484 AUDIO
    TITLE "29:cjc024_3837"
    INDEX 01 09:56:12
  TRACK 485 AUDIO
    TITLE "0:"
    INDEX 01 09:57:62
  TRACK 486 AUDIO
    TITLE "30:cjc024_3838"
    INDEX 01 09:58:29
  TRACK 487 AUDIO
    TITLE "0:"
    INDEX 01 10:00:22
  TRACK 488 AUDIO
    TITLE "31:cjc024_3839"
    INDEX 01 10:00:53
  TRACK 489 AUDIO
    TITLE "0:"
    INDEX 01 10:02:46
  TRACK 490 AUDIO
    TITLE "28:cjc024_3840"
    INDEX 01 10:03:59
  TRACK 491 AUDIO
    TITLE "0:"
    INDEX 01 10:05:03
  TRACK 492 AUDIO
    TITLE "29:cjc024_3841"
    INDEX 01 10:05:46
  TRACK 493 AUDIO
    TITLE "0:"
    INDEX 01 10:06:71
  TRACK 494 AUDIO
    TITLE "30:cjc024_3842"
    INDEX 01 10:07:33
  TRACK 495 AUDIO
    TITLE "0:"
    INDEX 01 10:09:21
  TRACK 496 AUDIO
    TITLE "31:cjc024_3843"
    INDEX 01 10:09:46
  TRACK 497 AUDIO
    TITLE "0:"
    INDEX 01 10:11:33
  TRACK 498 AUDIO
    TITLE "28:cjc024_3844"
    INDEX 01 10:12:35
  TRACK 499 AUDIO
    TITLE "0:"
    INDEX 01 10:13:52
  TRACK 500 AUDIO
    TITLE "29:cjc024_3845"
    INDEX 01 10:14:16
  TRACK 501 AUDIO
    TITLE "0:"
    INDEX 01 10:17:34
  TRACK 502 AUDIO
    TITLE "30:cjc024_3846"
    INDEX 01 10:17:69
  TRACK 503 AUDIO
    TITLE "0:"
    INDEX 01 10:20:26
  TRACK 504 AUDIO
    TITLE "31:cjc024_3847"
    INDEX 01 10:20:50
  TRACK 505 AUDIO
    TITLE "0:"
    INDEX 01 10:23:05
  TRACK 506 AUDIO
    TITLE "28:cjc024_3848"
    INDEX 01 10:24:00
  TRACK 507 AUDIO
    TITLE "0:"
    INDEX 01 10:25:06
  TRACK 508 AUDIO
    TITLE "29:cjc024_3849"
    INDEX 01 10:25:41
  TRACK 509 AUDIO
    TITLE "0:"
    INDEX 01 10:28:04
  TRACK 510 AUDIO
    TITLE "30:cjc024_3850"
    INDEX 01 10:28:39
  TRACK 511 AUDIO
    TITLE "0:"
    INDEX 01 10:30:62
  TRACK 512 AUDIO
    TITLE "31:cjc024_3851"
    INDEX 01 10:31:18
  TRACK 513 AUDIO
    TITLE "0:"
    INDEX 01 10:33:41
  TRACK 514 AUDIO
    TITLE "28:cjc024_3852"
    INDEX 01 10:34:46
  TRACK 515 AUDIO
    TITLE "0:"
    INDEX 01 10:35:49
  TRACK 516 AUDIO
    TITLE "29:cjc024_3853"
    INDEX 01 10:36:12
  TRACK 517 AUDIO
    TITLE "0:"
    INDEX 01 10:38:46
  TRACK 518 AUDIO
    TITLE "30:cjc024_3854"
    INDEX 01 10:39:06
  TRACK 519 AUDIO
    TITLE "0:"
    INDEX 01 10:41:46
  TRACK 520 AUDIO
    TITLE "31:cjc024_3855"
    INDEX 01 10:41:69
  TRACK 521 AUDIO
    TITLE "0:"
    INDEX 01 10:44:35
  TRACK 522 AUDIO
    TITLE "28:cjc024_3856"
    INDEX 01 10:45:36
  TRACK 523 AUDIO
    TITLE "0:"
    INDEX 01 10:46:33
  TRACK 524 AUDIO
    TITLE "29:cjc024_3857"
    INDEX 01 10:47:05
  TRACK 525 AUDIO
    TITLE "0:"
    INDEX 01 10:51:54
  TRACK 526 AUDIO
    TITLE "30:cjc024_3858"
    INDEX 01 10:52:16
  TRACK 527 AUDIO
    TITLE "0:"
    INDEX 01 10:55:28
  TRACK 528 AUDIO
    TITLE "31:cjc024_3859"
    INDEX 01 10:55:54
  TRACK 529 AUDIO
    TITLE "0:"
    INDEX 01 10:58:66
  TRACK 530 AUDIO
    TITLE "28:cjc024_3860"
    INDEX 01 10:59:65
  TRACK 531 AUDIO
    TITLE "0:"
    INDEX 01 11:01:17
  TRACK 532 AUDIO
    TITLE "29:cjc024_3861"
    INDEX 01 11:01:60
  TRACK 533 AUDIO
    TITLE "0:"
    INDEX 01 11:03:71
  TRACK 534 AUDIO
    TITLE "30:cjc024_3862"
    INDEX 01 11:04:37
  TRACK 535 AUDIO
    TITLE "0:"
    INDEX 01 11:06:73
  TRACK 536 AUDIO
    TITLE "31:cjc024_3863"
    INDEX 01 11:07:24
  TRACK 537 AUDIO
    TITLE "0:"
    INDEX 01 11:09:60
  TRACK 538 AUDIO
    TITLE "28:cjc024_3864"
    INDEX 01 11:10:57
  TRACK 539 AUDIO
    TITLE "0:"
    INDEX 01 11:12:00
  TRACK 540 AUDIO
    TITLE "29:cjc024_3865"
    INDEX 01 11:12:43
  TRACK 541 AUDIO
    TITLE "0:"
    INDEX 01 11:14:16
  TRACK 542 AUDIO
    TITLE "30:cjc024_3866"
    INDEX 01 11:14:53
  TRACK 543 AUDIO
    TITLE "0:"
    INDEX 01 11:16:38
  TRACK 544 AUDIO
    TITLE "31:cjc024_3867"
    INDEX 01 11:16:70
  TRACK 545 AUDIO
    TITLE "0:"
    INDEX 01 11:18:53
  TRACK 546 AUDIO
    TITLE "28:cjc024_3868"
    INDEX 01 11:19:58
  TRACK 547 AUDIO
    TITLE "0:"
    INDEX 01 11:21:06
  TRACK 548 AUDIO
    TITLE "29:cjc024_3869"
    INDEX 01 11:21:45
  TRACK 549 AUDIO
    TITLE "0:"
    INDEX 01 11:23:21
  TRACK 550 AUDIO
    TITLE "30:cjc024_3870"
    INDEX 01 11:23:52
  TRACK 551 AUDIO
    TITLE "0:"
    INDEX 01 11:25:26
  TRACK 552 AUDIO
    TITLE "31:cjc024_3871"
    INDEX 01 11:25:45
  TRACK 553 AUDIO
    TITLE "0:"
    INDEX 01 11:27:17
  TRACK 554 AUDIO
    TITLE "28:cjc024_3872"
    INDEX 01 11:28:16
  TRACK 555 AUDIO
    TITLE "0:"
    INDEX 01 11:29:27
  TRACK 556 AUDIO
    TITLE "29:cjc024_3873"
    INDEX 01 11:30:03
  TRACK 557 AUDIO
    TITLE "0:"
    INDEX 01 11:32:34
  TRACK 558 AUDIO
    TITLE "30:cjc024_3874"
    INDEX 01 11:32:69
  TRACK 559 AUDIO
    TITLE "0:"
    INDEX 01 11:35:12
  TRACK 560 AUDIO
    TITLE "31:cjc024_3875"
    INDEX 01 11:35:40
  TRACK 561 AUDIO
    TITLE "0:"
    INDEX 01 11:37:58
  TRACK 562 AUDIO
    TITLE "28:cjc024_3876"
    INDEX 01 11:38:60
  TRACK 563 AUDIO
    TITLE "0:"
    INDEX 01 11:39:73
  TRACK 564 AUDIO
    TITLE "29:cjc024_3877"
    INDEX 01 11:40:35
  TRACK 565 AUDIO
    TITLE "0:"
    INDEX 01 11:42:46
  TRACK 566 AUDIO
    TITLE "30:cjc024_3878"
    INDEX 01 11:43:10
  TRACK 567 AUDIO
    TITLE "0:"
    INDEX 01 11:45:32
  TRACK 568 AUDIO
    TITLE "31:cjc024_3879"
    INDEX 01 11:45:60
  TRACK 569 AUDIO
    TITLE "0:"
    INDEX 01 11:48:07
  TRACK 570 AUDIO
    TITLE "28:cjc024_3880"
    INDEX 01 11:49:09
  TRACK 571 AUDIO
    TITLE "0:"
    INDEX 01 11:50:06
  TRACK 572 AUDIO
    TITLE "29:cjc024_3881"
    INDEX 01 11:50:45
  TRACK 573 AUDIO
    TITLE "0:"
    INDEX 01 11:52:32
  TRACK 574 AUDIO
    TITLE "30:cjc024_3882"
    INDEX 01 11:52:72
  TRACK 575 AUDIO
    TITLE "0:"
    INDEX 01 11:54:43
  TRACK 576 AUDIO
    TITLE "31:cjc024_3883"
    INDEX 01 11:54:68
  TRACK 577 AUDIO
    TITLE "0:"
    INDEX 01 11:56:44
  TRACK 578 AUDIO
    TITLE "28:cjc024_3884"
    INDEX 01 11:57:41
  TRACK 579 AUDIO
    TITLE "0:"
    INDEX 01 11:58:68
  TRACK 580 AUDIO
    TITLE "29:cjc024_3885"
    INDEX 01 11:59:30
  TRACK 581 AUDIO
    TITLE "0:"
    INDEX 01 12:01:12
  TRACK 582 AUDIO
    TITLE "30:cjc024_3886"
    INDEX 01 12:01:51
  TRACK 583 AUDIO
    TITLE "0:"
    INDEX 01 12:03:52
  TRACK 584 AUDIO
    TITLE "31:cjc024_3887"
    INDEX 01 12:04:00
  TRACK 585 AUDIO
    TITLE "0:"
    INDEX 01 12:06:01
  TRACK 586 AUDIO
    TITLE "28:cjc024_3888"
    INDEX 01 12:07:03
  TRACK 587 AUDIO
    TITLE "0:"
    INDEX 01 12:08:20
  TRACK 588 AUDIO
    TITLE "29:cjc024_3889"
    INDEX 01 12:08:59
  TRACK 589 AUDIO
    TITLE "0:"
    INDEX 01 12:10:30
  TRACK 590 AUDIO
    TITLE "30:cjc024_3890"
    INDEX 01 12:10:71
  TRACK 591 AUDIO
    TITLE "0:"
    INDEX 01 12:12:43
  TRACK 592 AUDIO
    TITLE "31:cjc024_3891"
    INDEX 01 12:13:01
  TRACK 593 AUDIO
    TITLE "0:"
    INDEX 01 12:14:48
  TRACK 594 AUDIO
    TITLE "28:cjc024_3892"
    INDEX 01 12:15:57
  TRACK 595 AUDIO
    TITLE "0:"
    INDEX 01 12:16:62
  TRACK 596 AUDIO
    TITLE "29:cjc024_3893"
    INDEX 01 12:17:26
  TRACK 597 AUDIO
    TITLE "0:"
    INDEX 01 12:19:64
  TRACK 598 AUDIO
    TITLE "30:cjc024_3894"
    INDEX 01 12:20:29
  TRACK 599 AUDIO
    TITLE "0:"
    INDEX 01 12:22:14
  TRACK 600 AUDIO
    TITLE "31:cjc024_3895"
    INDEX 01 12:22:37
  TRACK 601 AUDIO
    TITLE "0:"
    INDEX 01 12:24:24
  TRACK 602 AUDIO
    TITLE "28:cjc024_3896"
    INDEX 01 12:25:28
  TRACK 603 AUDIO
    TITLE "0:"
    INDEX 01 12:26:35
  TRACK 604 AUDIO
    TITLE "29:cjc024_3897"
    INDEX 01 12:26:74
  TRACK 605 AUDIO
    TITLE "0:"
    INDEX 01 12:28:73
  TRACK 606 AUDIO
    TITLE "30:cjc024_3898"
    INDEX 01 12:29:35
  TRACK 607 AUDIO
    TITLE "0:"
    INDEX 01 12:31:60
  TRACK 608 AUDIO
    TITLE "31:cjc024_3899"
    INDEX 01 12:32:08
  TRACK 609 AUDIO
    TITLE "0:"
    INDEX 01 12:34:33
  TRACK 610 AUDIO
    TITLE "28:cjc024_3900"
    INDEX 01 12:35:30
  TRACK 611 AUDIO
    TITLE "0:"
    INDEX 01 12:36:45
  TRACK 612 AUDIO
    TITLE "29:cjc024_3901"
    INDEX 01 12:37:11
  TRACK 613 AUDIO
    TITLE "0:"
    INDEX 01 12:39:38
  TRACK 614 AUDIO
    TITLE "30:cjc024_3902"
    INDEX 01 12:39:73
  TRACK 615 AUDIO
    TITLE "0:"
    INDEX 01 12:41:56
  TRACK 616 AUDIO
    TITLE "31:cjc024_3903"
    INDEX 01 12:42:07
  TRACK 617 AUDIO
    TITLE "0:"
    INDEX 01 12:43:63
  TRACK 618 AUDIO
    TITLE "28:cjc024_3904"
    INDEX 01 12:44:62
  TRACK 619 AUDIO
    TITLE "0:"
    INDEX 01 12:45:72
  TRACK 620 AUDIO
    TITLE "29:cjc024_3905"
    INDEX 01 12:46:40
  TRACK 621 AUDIO
    TITLE "0:"
    INDEX 01 12:49:05
  TRACK 622 AUDIO
    TITLE "30:cjc024_3906"
    INDEX 01 12:49:40
  TRACK 623 AUDIO
    TITLE "0:"
    INDEX 01 12:51:43
  TRACK 624 AUDIO
    TITLE "31:cjc024_3907"
    INDEX 01 12:51:64
  TRACK 625 AUDIO
    TITLE "0:"
    INDEX 01 12:53:65
  TRACK 626 AUDIO
    TITLE "28:cjc024_3908"
    INDEX 01 12:54:67
  TRACK 627 AUDIO
    TITLE "0:"
    INDEX 01 12:56:03
  TRACK 628 AUDIO
    TITLE "29:cjc024_3909"
    INDEX 01 12:56:38
  TRACK 629 AUDIO
    TITLE "0:"
    INDEX 01 12:59:09
  TRACK 630 AUDIO
    TITLE "30:cjc024_3910"
    INDEX 01 12:59:46
  TRACK 631 AUDIO
    TITLE "0:"
    INDEX 01 13:02:06
  TRACK 632 AUDIO
    TITLE "31:cjc024_3911"
    INDEX 01 13:02:33
  TRACK 633 AUDIO
    TITLE "0:"
    INDEX 01 13:04:63
  TRACK 634 AUDIO
    TITLE "28:cjc024_3912"
    INDEX 01 13:05:67
  TRACK 635 AUDIO
    TITLE "0:"
    INDEX 01 13:06:60
  TRACK 636 AUDIO
    TITLE "29:cjc024_3913"
    INDEX 01 13:07:24
  TRACK 637 AUDIO
    TITLE "0:"
    INDEX 01 13:09:09
  TRACK 638 AUDIO
    TITLE "30:cjc024_3914"
    INDEX 01 13:09:47
  TRACK 639 AUDIO
    TITLE "0:"
    INDEX 01 13:11:18
  TRACK 640 AUDIO
    TITLE "31:cjc024_3915"
    INDEX 01 13:11:46
  TRACK 641 AUDIO
    TITLE "0:"
    INDEX 01 13:13:15
  TRACK 642 AUDIO
    TITLE "28:cjc024_3916"
    INDEX 01 13:14:17
  TRACK 643 AUDIO
    TITLE "0:"
    INDEX 01 13:15:20
  TRACK 644 AUDIO
    TITLE "29:cjc024_3917"
    INDEX 01 13:15:59
  TRACK 645 AUDIO
    TITLE "0:"
    INDEX 01 13:18:22
  TRACK 646 AUDIO
    TITLE "30:cjc024_3918"
    INDEX 01 13:18:59
  TRACK 647 AUDIO
    TITLE "0:"
    INDEX 01 13:20:54
  TRACK 648 AUDIO
    TITLE "31:cjc024_3919"
    INDEX 01 13:21:09
  TRACK 649 AUDIO
    TITLE "0:"
    INDEX 01 13:23:04
  TRACK 650 AUDIO
    TITLE "28:cjc024_3920"
    INDEX 01 13:24:03
  TRACK 651 AUDIO
    TITLE "0:"
    INDEX 01 13:25:12
  TRACK 652 AUDIO
    TITLE "29:cjc024_3921"
    INDEX 01 13:25:52
  TRACK 653 AUDIO
    TITLE "0:"
    INDEX 01 13:27:62
  TRACK 654 AUDIO
    TITLE "30:cjc024_3922"
    INDEX 01 13:28:23
  TRACK 655 AUDIO
    TITLE "0:"
    INDEX 01 13:30:41
  TRACK 656 AUDIO
    TITLE "31:cjc024_3923"
    INDEX 01 13:30:72
  TRACK 657 AUDIO
    TITLE "0:"
    INDEX 01 13:33:18
  TRACK 658 AUDIO
    TITLE "28:cjc024_3924"
    INDEX 01 13:34:25
  TRACK 659 AUDIO
    TITLE "0:"
    INDEX 01 13:35:50
  TRACK 660 AUDIO
    TITLE "29:cjc024_3925"
    INDEX 01 13:36:20
  TRACK 661 AUDIO
    TITLE "0:"
    INDEX 01 13:38:29
  TRACK 662 AUDIO
    TITLE "30:cjc024_3926"
    INDEX 01 13:38:68
  TRACK 663 AUDIO
    TITLE "0:"
    INDEX 01 13:41:37
  TRACK 664 AUDIO
    TITLE "31:cjc024_3927"
    INDEX 01 13:41:58
  TRACK 665 AUDIO
    TITLE "0:"
    INDEX 01 13:44:27
  TRACK 666 AUDIO
    TITLE "28:cjc024_3928"
    INDEX 01 13:45:29
  TRACK 667 AUDIO
    TITLE "0:"
    INDEX 01 13:46:52
  TRACK 668 AUDIO
    TITLE "29:cjc024_3929"
    INDEX 01 13:47:20
  TRACK 669 AUDIO
    TITLE "0:"
    INDEX 01 13:49:21
  TRACK 670 AUDIO
    TITLE "30:cjc024_3930"
    INDEX 01 13:49:56
  TRACK 671 AUDIO
    TITLE "0:"
    INDEX 01 13:51:53
  TRACK 672 AUDIO
    TITLE "31:cjc024_3931"
    INDEX 01 13:52:07
  TRACK 673 AUDIO
    TITLE "0:"
    INDEX 01 13:54:00
  TRACK 674 AUDIO
    TITLE "28:cjc024_3932"
    INDEX 01 13:55:08
  TRACK 675 AUDIO
    TITLE "0:"
    INDEX 01 13:56:17
  TRACK 676 AUDIO
    TITLE "29:cjc024_3933"
    INDEX 01 13:56:54
  TRACK 677 AUDIO
    TITLE "0:"
    INDEX 01 13:59:33
  TRACK 678 AUDIO
    TITLE "30:cjc024_3934"
    INDEX 01 13:59:70
  TRACK 679 AUDIO
    TITLE "0:"
    INDEX 01 14:02:55
  TRACK 680 AUDIO
    TITLE "31:cjc024_3935"
    INDEX 01 14:03:03
  TRACK 681 AUDIO
    TITLE "0:"
    INDEX 01 14:05:63
  TRACK 682 AUDIO
    TITLE "28:cjc024_3936"
    INDEX 01 14:06:60
  TRACK 683 AUDIO
    TITLE "0:"
    INDEX 01 14:08:04
  TRACK 684 AUDIO
    TITLE "29:cjc024_3937"
    INDEX 01 14:08:46
  TRACK 685 AUDIO
    TITLE "0:"
    INDEX 01 14:10:46
  TRACK 686 AUDIO
    TITLE "30:cjc024_3938"
    INDEX 01 14:11:13
  TRACK 687 AUDIO
    TITLE "0:"
    INDEX 01 14:13:35
  TRACK 688 AUDIO
    TITLE "31:cjc024_3939"
    INDEX 01 14:13:60
  TRACK 689 AUDIO
    TITLE "0:"
    INDEX 01 14:16:10
  TRACK 690 AUDIO
    TITLE "28:cjc024_3940"
    INDEX 01 14:17:07
  TRACK 691 AUDIO
    TITLE "0:"
    INDEX 01 14:18:05
  TRACK 692 AUDIO
    TITLE "29:cjc024_3941"
    INDEX 01 14:18:44
  TRACK 693 AUDIO
    TITLE "0:"
    INDEX 01 14:20:47
  TRACK 694 AUDIO
    TITLE "30:cjc024_3942"
    INDEX 01 14:21:07
  TRACK 695 AUDIO
    TITLE "0:"
    INDEX 01 14:23:16
  TRACK 696 AUDIO
    TITLE "31:cjc024_3943"
    INDEX 01 14:23:41
  TRACK 697 AUDIO
    TITLE "0:"
    INDEX 01 14:25:50
  TRACK 698 AUDIO
    TITLE "28:cjc024_3944"
    INDEX 01 14:26:47
  TRACK 699 AUDIO
    TITLE "0:"
    INDEX 01 14:27:49
  TRACK 700 AUDIO
    TITLE "29:cjc024_3945"
    INDEX 01 14:28:13
  TRACK 701 AUDIO
    TITLE "0:"
    INDEX 01 14:30:20
  TRACK 702 AUDIO
    TITLE "30:cjc024_3946"
    INDEX 01 14:30:57
  TRACK 703 AUDIO
    TITLE "0:"
    INDEX 01 14:32:58
  TRACK 704 AUDIO
    TITLE "31:cjc024_3947"
    INDEX 01 14:33:04
  TRACK 705 AUDIO
    TITLE "0:"
    INDEX 01 14:35:07
  TRACK 706 AUDIO
    TITLE "28:cjc024_3948"
    INDEX 01 14:36:07
  TRACK 707 AUDIO
    TITLE "0:"
    INDEX 01 14:37:00
  TRACK 708 AUDIO
    TITLE "29:cjc024_3949"
    INDEX 01 14:37:37
  TRACK 709 AUDIO
    TITLE "0:"
    INDEX 01 14:40:44
  TRACK 710 AUDIO
    TITLE "30:cjc024_3950"
    INDEX 01 14:41:08
  TRACK 711 AUDIO
    TITLE "0:"
    INDEX 01 14:43:40
  TRACK 712 AUDIO
    TITLE "31:cjc024_3951"
    INDEX 01 14:43:65
  TRACK 713 AUDIO
    TITLE "0:"
    INDEX 01 14:46:25
  TRACK 714 AUDIO
    TITLE "28:cjc024_3952"
    INDEX 01 14:47:28
  TRACK 715 AUDIO
    TITLE "0:"
    INDEX 01 14:48:24
  TRACK 716 AUDIO
    TITLE "29:cjc024_3953"
    INDEX 01 14:48:67
  TRACK 717 AUDIO
    TITLE "0:"
    INDEX 01 14:51:20
  TRACK 718 AUDIO
    TITLE "30:cjc024_3954"
    INDEX 01 14:51:55
  TRACK 719 AUDIO
    TITLE "0:"
    INDEX 01 14:53:60
  TRACK 720 AUDIO
    TITLE "31:cjc024_3955"
    INDEX 01 14:54:08
  TRACK 721 AUDIO
    TITLE "0:"
    INDEX 01 14:56:09
  TRACK 722 AUDIO
    TITLE "28:cjc024_3956"
    INDEX 01 14:57:13
  TRACK 723 AUDIO
    TITLE "0:"
    INDEX 01 14:58:14
  TRACK 724 AUDIO
    TITLE "29:cjc024_3957"
    INDEX 01 14:58:51
  TRACK 725 AUDIO
    TITLE "0:"
    INDEX 01 15:02:10
  TRACK 726 AUDIO
    TITLE "30:cjc024_3958"
    INDEX 01 15:02:47
  TRACK 727 AUDIO
    TITLE "0:"
    INDEX 01 15:05:04
  TRACK 728 AUDIO
    TITLE "31:cjc024_3959"
    INDEX 01 15:05:30
  TRACK 729 AUDIO
    TITLE "0:"
    INDEX 01 15:07:58
  TRACK 730 AUDIO
    TITLE "28:cjc024_3960"
    INDEX 01 15:08:60
  TRACK 731 AUDIO
    TITLE "0:"
    INDEX 01 15:09:71
  TRACK 732 AUDIO
    TITLE "29:cjc024_3961"
    INDEX 01 15:10:35
  TRACK 733 AUDIO
    TITLE "0:"
    INDEX 01 15:12:53
  TRACK 734 AUDIO
    TITLE "30:cjc024_3962"
    INDEX 01 15:13:18
  TRACK 735 AUDIO
    TITLE "0:"
    INDEX 01 15:15:15
  TRACK 736 AUDIO
    TITLE "31:cjc024_3963"
    INDEX 01 15:15:44
  TRACK 737 AUDIO
    TITLE "0:"
    INDEX 01 15:17:41
  TRACK 738 AUDIO
    TITLE "28:cjc024_3964"
    INDEX 01 15:18:40
  TRACK 739 AUDIO
    TITLE "0:"
    INDEX 01 15:19:59
  TRACK 740 AUDIO
    TITLE "29:cjc024_3965"
    INDEX 01 15:20:24
  TRACK 741 AUDIO
    TITLE "0:"
    INDEX 01 15:22:62
  TRACK 742 AUDIO
    TITLE "30:cjc024_3966"
    INDEX 01 15:23:26
  TRACK 743 AUDIO
    TITLE "0:"
    INDEX 01 15:25:52
  TRACK 744 AUDIO
    TITLE "31:cjc024_3967"
    INDEX 01 15:26:05
  TRACK 745 AUDIO
    TITLE "0:"
    INDEX 01 15:28:37
  TRACK 746 AUDIO
    TITLE "28:cjc024_3968"
    INDEX 01 15:29:38
  TRACK 747 AUDIO
    TITLE "0:"
    INDEX 01 15:30:47
  TRACK 748 AUDIO
    TITLE "29:cjc024_3969"
    INDEX 01 15:31:14
  TRACK 749 AUDIO
    TITLE "0:"
    INDEX 01 15:33:26
  TRACK 750 AUDIO
    TITLE "30:cjc024_3970"
    INDEX 01 15:33:63
  TRACK 751 AUDIO
    TITLE "0:"
    INDEX 01 15:36:01
  TRACK 752 AUDIO
    TITLE "31:cjc024_3971"
    INDEX 01 15:36:24
  TRACK 753 AUDIO
    TITLE "0:"
    INDEX 01 15:38:37
  TRACK 754 AUDIO
    TITLE "28:cjc024_3972"
    INDEX 01 15:39:39
  TRACK 755 AUDIO
    TITLE "0:"
    INDEX 01 15:40:48
  TRACK 756 AUDIO
    TITLE "29:cjc024_3973"
    INDEX 01 15:41:12
  TRACK 757 AUDIO
    TITLE "0:"
    INDEX 01 15:44:02
  TRACK 758 AUDIO
    TITLE "30:cjc024_3974"
    INDEX 01 15:44:44
  TRACK 759 AUDIO
    TITLE "0:"
    INDEX 01 15:47:30
  TRACK 760 AUDIO
    TITLE "31:cjc024_3975"
    INDEX 01 15:47:58
  TRACK 761 AUDIO
    TITLE "0:"
    INDEX 01 15:50:46
  TRACK 762 AUDIO
    TITLE "28:cjc024_3976"
    INDEX 01 15:51:48
  TRACK 763 AUDIO
    TITLE "0:"
    INDEX 01 15:52:61
  TRACK 764 AUDIO
    TITLE "29:cjc024_3977"
    INDEX 01 15:53:23
  TRACK 765 AUDIO
    TITLE "0:"
    INDEX 01 15:56:55
  TRACK 766 AUDIO
    TITLE "30:cjc024_3978"
    INDEX 01 15:57:19
  TRACK 767 AUDIO
    TITLE "0:"
    INDEX 01 15:59:55
  TRACK 768 AUDIO
    TITLE "31:cjc024_3979"
    INDEX 01 16:00:05
  TRACK 769 AUDIO
    TITLE "0:"
    INDEX 01 16:02:42
  TRACK 770 AUDIO
    TITLE "28:cjc024_3980"
    INDEX 01 16:03:43
  TRACK 771 AUDIO
    TITLE "0:"
    INDEX 01 16:04:48
  TRACK 772 AUDIO
    TITLE "29:cjc024_3981"
    INDEX 01 16:05:10
  TRACK 773 AUDIO
    TITLE "0:"
    INDEX 01 16:07:60
  TRACK 774 AUDIO
    TITLE "30:cjc024_3982"
    INDEX 01 16:08:24
  TRACK 775 AUDIO
    TITLE "0:"
    INDEX 01 16:10:45
  TRACK 776 AUDIO
    TITLE "31:cjc024_3983"
    INDEX 01 16:10:68
  TRACK 777 AUDIO
    TITLE "0:"
    INDEX 01 16:13:14
  TRACK 778 AUDIO
    TITLE "28:cjc024_3984"
    INDEX 01 16:14:13
  TRACK 779 AUDIO
    TITLE "0:"
    INDEX 01 16:15:28
  TRACK 780 AUDIO
    TITLE "29:cjc024_3985"
    INDEX 01 16:15:74
  TRACK 781 AUDIO
    TITLE "0:"
    INDEX 01 16:18:31
  TRACK 782 AUDIO
    TITLE "30:cjc024_3986"
    INDEX 01 16:18:68
  TRACK 783 AUDIO
    TITLE "0:"
    INDEX 01 16:20:47
  TRACK 784 AUDIO
    TITLE "31:cjc024_3987"
    INDEX 01 16:21:06
  TRACK 785 AUDIO
    TITLE "0:"
    INDEX 01 16:22:62
  TRACK 786 AUDIO
    TITLE "28:cjc024_3988"
    INDEX 01 16:23:65
  TRACK 787 AUDIO
    TITLE "0:"
    INDEX 01 16:24:72
  TRACK 788 AUDIO
    TITLE "29:cjc024_3989"
    INDEX 01 16:25:39
  TRACK 789 AUDIO
    TITLE "0:"
    INDEX 01 16:27:67
  TRACK 790 AUDIO
    TITLE "30:cjc024_3990"
    INDEX 01 16:28:27
  TRACK 791 AUDIO
    TITLE "0:"
    INDEX 01 16:30:34
  TRACK 792 AUDIO
    TITLE "31:cjc024_3991"
    INDEX 01 16:30:57
  TRACK 793 AUDIO
    TITLE "0:"
    INDEX 01 16:32:62
  TRACK 794 AUDIO
    TITLE "28:cjc024_3992"
    INDEX 01 16:33:66
  TRACK 795 AUDIO
    TITLE "0:"
    INDEX 01 16:35:14
  TRACK 796 AUDIO
    TITLE "29:cjc024_3993"
    INDEX 01 16:35:49
  TRACK 797 AUDIO
    TITLE "0:"
    INDEX 01 16:37:26
  TRACK 798 AUDIO
    TITLE "30:cjc024_3994"
    INDEX 01 16:37:65
  TRACK 799 AUDIO
    TITLE "0:"
    INDEX 01 16:39:66
  TRACK 800 AUDIO
    TITLE "31:cjc024_3995"
    INDEX 01 16:40:17
  TRACK 801 AUDIO
    TITLE "0:"
    INDEX 01 16:42:18
